<mxfile host="app.diagrams.net" modified="2023-01-19T13:36:54.145Z" agent="5.0 (Windows NT 10.0; Win64; x64) AppleWebKit/537.36 (KHTML, like Gecko) Chrome/109.0.0.0 Safari/537.36" version="20.8.6" etag="TJFc-Ey61Y2RVfPHbJ5q" type="github">
  <diagram id="ZK733x74kc_BWeG9RwDx" name="第 1 页">
    <mxGraphModel dx="1050" dy="493" grid="1" gridSize="10" guides="1" tooltips="1" connect="1" arrows="1" fold="1" page="1" pageScale="1" pageWidth="827" pageHeight="1169" math="0" shadow="0">
      <root>
        <mxCell id="0" />
        <mxCell id="1" parent="0" />
        <mxCell id="igIxx55oJ6ESS7ahGY97-5" style="edgeStyle=orthogonalEdgeStyle;rounded=0;orthogonalLoop=1;jettySize=auto;html=1;entryX=0;entryY=0.5;entryDx=0;entryDy=0;fontSize=24;" edge="1" parent="1" source="igIxx55oJ6ESS7ahGY97-2" target="igIxx55oJ6ESS7ahGY97-3">
          <mxGeometry relative="1" as="geometry" />
        </mxCell>
        <mxCell id="igIxx55oJ6ESS7ahGY97-7" value="生产" style="edgeLabel;html=1;align=center;verticalAlign=middle;resizable=0;points=[];fontSize=24;" vertex="1" connectable="0" parent="igIxx55oJ6ESS7ahGY97-5">
          <mxGeometry x="0.1973" relative="1" as="geometry">
            <mxPoint x="-10" as="offset" />
          </mxGeometry>
        </mxCell>
        <mxCell id="igIxx55oJ6ESS7ahGY97-2" value="&lt;font style=&quot;font-size: 24px;&quot;&gt;Producer&lt;/font&gt;" style="rounded=1;whiteSpace=wrap;html=1;strokeWidth=2;fillWeight=4;hachureGap=8;hachureAngle=45;fillColor=#dae8fc;sketch=1;strokeColor=#6c8ebf;" vertex="1" parent="1">
          <mxGeometry x="60" y="220" width="120" height="60" as="geometry" />
        </mxCell>
        <mxCell id="igIxx55oJ6ESS7ahGY97-6" style="edgeStyle=orthogonalEdgeStyle;rounded=0;orthogonalLoop=1;jettySize=auto;html=1;entryX=0;entryY=0.5;entryDx=0;entryDy=0;fontSize=24;" edge="1" parent="1" source="igIxx55oJ6ESS7ahGY97-3" target="igIxx55oJ6ESS7ahGY97-4">
          <mxGeometry relative="1" as="geometry" />
        </mxCell>
        <mxCell id="igIxx55oJ6ESS7ahGY97-8" value="消费" style="edgeLabel;html=1;align=center;verticalAlign=middle;resizable=0;points=[];fontSize=24;" vertex="1" connectable="0" parent="igIxx55oJ6ESS7ahGY97-6">
          <mxGeometry x="0.3173" relative="1" as="geometry">
            <mxPoint x="-19" as="offset" />
          </mxGeometry>
        </mxCell>
        <mxCell id="igIxx55oJ6ESS7ahGY97-3" value="&lt;font style=&quot;font-size: 24px;&quot;&gt;Broker&lt;/font&gt;" style="rounded=1;whiteSpace=wrap;html=1;strokeWidth=2;fillWeight=4;hachureGap=8;hachureAngle=45;fillColor=#dae8fc;sketch=1;strokeColor=#6c8ebf;" vertex="1" parent="1">
          <mxGeometry x="330" y="220" width="120" height="60" as="geometry" />
        </mxCell>
        <mxCell id="igIxx55oJ6ESS7ahGY97-4" value="&lt;font style=&quot;font-size: 24px;&quot;&gt;Consumer&lt;/font&gt;" style="rounded=1;whiteSpace=wrap;html=1;strokeWidth=2;fillWeight=4;hachureGap=8;hachureAngle=45;fillColor=#dae8fc;sketch=1;strokeColor=#6c8ebf;" vertex="1" parent="1">
          <mxGeometry x="600" y="220" width="120" height="60" as="geometry" />
        </mxCell>
      </root>
    </mxGraphModel>
  </diagram>
</mxfile>
